<!--?xml version="1.0" encoding="utf-8"?-->
<!-- Svg Vector Icons : http://www.onlinewebfonts.com/icon -->

<svg version="1.1" xmlns="http://www.w3.org/2000/svg" xmlns:xlink="http://www.w3.org/1999/xlink" x="0px" y="0px" viewBox="0 0 256 256" enable-background="new 0 0 256 256" xml:space="preserve">
<metadata> Svg Vector Icons : http://www.onlinewebfonts.com/icon </metadata>
<g><g><g><path fill="#ffffff" data-title="Layer 0" xs="0" d="M17.9,14.8c-2.7,0.9-5.2,3.1-6.6,5.9L10,23v104.8v104.8l1,2.1c1.2,2.7,3.5,5,6.2,6.2l2.1,1H128h108.8l2.1-1c2.7-1.2,5-3.5,6.2-6.2l1-2.1V127.9V23l-1.2-2.4c-0.7-1.3-2-3-3-3.8c-3.7-3,5.2-2.8-113.9-2.8C35.2,14.1,19.4,14.2,17.9,14.8z M236.1,22.6c0.9,0.5,1.5,1.3,1.8,2.4c0.3,1.2,0.5,11.3,0.4,32l-0.1,30.3H128H17.9L17.7,57c-0.1-20.7,0-30.8,0.4-32c1-3.4-8.6-3.1,109.8-3.1C222.2,21.9,234.9,22,236.1,22.6z M238.3,128l-0.1,32.7H128H17.9L17.7,128l-0.1-32.7H128h110.4L238.3,128z M238.3,200.2l-0.1,31.4l-1.3,1.2l-1.2,1.3H128H20.4l-1.2-1.3l-1.3-1.2l-0.1-31.4l-0.1-31.4H128h110.4L238.3,200.2z"/></g></g></g>
</svg>