<!--?xml version="1.0" encoding="utf-8"?-->
<!-- Svg Vector Icons : http://www.onlinewebfonts.com/icon -->

<svg version="1.1" xmlns="http://www.w3.org/2000/svg" xmlns:xlink="http://www.w3.org/1999/xlink" x="0px" y="0px" viewBox="0 0 256 256" enable-background="new 0 0 256 256" xml:space="preserve">
<metadata> Svg Vector Icons : http://www.onlinewebfonts.com/icon </metadata>
<g><g><g><path fill="#ffffff" data-title="Layer 0" xs="0" d="M17.5,6.9c-1.3,0.6-3.3,2-4.2,3.1c-3.6,4-3.4-5.5-3.2,119.1L10.2,241l1.5,2.6c1.5,2.6,3,4,6.1,5.7c1.7,0.9,5.2,0.9,110.2,0.9h108.5l2.6-1.5c2.6-1.5,4-3,5.7-6.1c0.9-1.7,0.9-5.4,1.1-113.6C246.1,4.5,246.3,14,242.7,10c-1-1.1-2.9-2.5-4.2-3.1l-2.4-1.2H128H19.9L17.5,6.9z M85.9,128.1v114.1l-32.7-0.1L20.6,242l-1.2-1.4l-1.2-1.4V128.1V17l1.3-1.5l1.3-1.5h32.6h32.6V128.1z M161.8,128.1v114.1H128H94.2V128.1V14H128h33.8V128.1z M236.5,15.5l1.3,1.5v111.1v111.2l-1.2,1.4l-1.2,1.4l-32.7,0.1l-32.7,0.1V128.1V14h32.6h32.6L236.5,15.5z"/></g></g></g>
</svg>