<?xml version="1.0" encoding="utf-8"?>
<!-- Svg Vector Icons : http://www.onlinewebfonts.com/icon -->
<!DOCTYPE svg PUBLIC "-//W3C//DTD SVG 1.1//EN" "http://www.w3.org/Graphics/SVG/1.1/DTD/svg11.dtd">
<svg version="1.1" xmlns="http://www.w3.org/2000/svg" xmlns:xlink="http://www.w3.org/1999/xlink" x="0px" y="0px" viewBox="0 0 256 256" enable-background="new 0 0 256 256" xml:space="preserve">
<metadata> Svg Vector Icons : http://www.onlinewebfonts.com/icon </metadata>
<g><g><path fill="#dadada" d="M185.9,211.6c5.7,0,10.4,4.7,10.4,10.4s-4.7,10.4-10.4,10.4c-5.7,0-10.4-4.7-10.4-10.4C175.5,216.3,180.3,211.6,185.9,211.6 M185.9,202.2c-10.8,0-19.8,9-19.8,19.8c0,10.8,9,19.8,19.8,19.8c10.8,0,19.8-9,19.8-19.8C205.7,210.9,196.7,202.2,185.9,202.2L185.9,202.2z"/><path fill="#dadada" d="M94.4,211.6c5.7,0,10.4,4.7,10.4,10.4s-4.7,10.4-10.4,10.4S84,227.6,84,222C83.8,216.3,88.5,211.6,94.4,211.6 M94.4,202.2c-10.8,0-19.8,9-19.8,19.8c0,10.8,9,19.8,19.8,19.8s19.8-9,19.8-19.8C114.2,210.9,105.3,202.2,94.4,202.2L94.4,202.2z"/><path fill="#dadada" d="M52.9,23.7c1.2,0,2.1,0.7,2.6,1.7L69,48.9h161.7c3.1,0,4.5,1.9,5,2.8s1.4,3.1,0,5.7l-44.8,74.3c-0.9,1.7-2.8,2.8-4.7,2.8H92.5l-14.9,23.8c-2.6,4-2.6,9-0.2,13s6.4,6.6,11.1,6.6h120.9c1.7,0,3.1,1.4,3.1,3.1c0,1.6-1.4,3.1-3.1,3.1H89.2c-5,0-9.7-1.4-12.7-4.2c-7.5-6.4-9.2-16.7-4.2-24.8l15.8-25.5L41.6,30H22.5c-1.7,0-3.1-1.4-3.1-3.3c0-1.7,1.4-3.1,3.1-3.1H52.9 M52.9,14.2H22.5c-6.8,0-12.5,5.7-12.5,12.5s5.7,12.5,12.5,12.5h13.2l42,89.4l-13.2,21.2c-7.3,11.8-5.4,27.6,6.1,37c5.2,4.5,12,6.4,18.9,6.4h120.3c6.8,0,12.5-5.7,12.5-12.5s-5.7-12.5-12.5-12.5h-121c-1.7,0-2.6-0.9-2.8-1.7c-0.5-0.7-0.7-2.1,0-3.3l12-19.3h88.4c5.2,0,10.1-2.8,13-7.3l44.6-74.5c5.9-10.1-1.2-22.9-13-22.9H74.4L63.5,20.3C61.4,16.8,57.4,14.2,52.9,14.2L52.9,14.2z"/></g></g>
</svg>